<svg xmlns="http://www.w3.org/2000/svg" viewBox="0 0 120 120" role="img" aria-labelledby="title desc">
  <title id="title">Fleak Symbol</title>
  <desc id="desc">Stylised Fleak symbol with layered blue arcs.</desc>
  <defs>
    <linearGradient id="fleak-g1" x1="18" y1="102" x2="82" y2="16" gradientUnits="userSpaceOnUse">
      <stop offset="0" stop-color="#023682" />
      <stop offset="0.45" stop-color="#027cda" />
      <stop offset="1" stop-color="#41ecfe" />
    </linearGradient>
    <linearGradient id="fleak-g2" x1="44" y1="112" x2="110" y2="8" gradientUnits="userSpaceOnUse">
      <stop offset="0" stop-color="#0262c3" />
      <stop offset="0.5" stop-color="#26c9f7" />
      <stop offset="1" stop-color="#41ecfe" />
    </linearGradient>
  </defs>
  <path d="M19.5 76.4c-13.1-28 6.6-58.6 37.3-60.9 6.7-0.5 13.2 0.4 19.2 2.4 4.1 1.4 5 6.8 1.6 9.5-13.5 10.6-26 23.6-32.6 41.3-3.3 9-4.7 18.3-4.4 26.9 0.2 4.7-5.5 7.5-9.1 4.3-4.8-4.3-8.5-9.6-12-15.3z" fill="url(#fleak-g1)" />
  <path d="M58.4 108.6c-4.2-0.2-6.9-4.8-4.7-8.4 9.4-15.2 18.1-31.6 22.1-50.5 1.7-7.9 2.3-15.5 3.5-23.5 0.9-6.2 7.8-9.6 13.2-6.3 9.1 5.5 15.3 14.2 16.8 25.3 3.6 26.5-17.3 52.5-45.4 62-1.7 0.6-3.5 1-5.5 1.4z" fill="url(#fleak-g2)" />
</svg>
